REM DIRINDEX 1\2,1\3
REM DIRNAME cjc140,folder01,folder02
TITLE ""
FILE "Track64.mp3" MP3
  TRACK 01 AUDIO
    TITLE "0:"
    INDEX 01 00:00:00
  TRACK 02 AUDIO
    TITLE "3:cjc140_228"
    INDEX 01 00:00:11
  TRACK 03 AUDIO
    TITLE "2:cjc140_229"
    INDEX 01 00:02:14
  TRACK 04 AUDIO
    TITLE "2:cjc140_230"
    INDEX 01 00:13:69
  TRACK 05 AUDIO
    TITLE "0:"
    INDEX 01 00:24:24
